<?xml version="1.0" encoding="UTF-8" standalone="no"?>
<!DOCTYPE svg PUBLIC "-//W3C//DTD SVG 1.1//EN" "http://www.w3.org/Graphics/SVG/1.1/DTD/svg11.dtd">
<svg width="100%" height="100%" viewBox="0 0 134 23" version="1.1" xmlns="http://www.w3.org/2000/svg" xmlns:xlink="http://www.w3.org/1999/xlink" xml:space="preserve" xmlns:serif="http://www.serif.com/" style="fill-rule:evenodd;clip-rule:evenodd;stroke-linecap:round;stroke-linejoin:round;stroke-miterlimit:2;">
    <g transform="matrix(1,0,0,1,0,1.5)">
        <g opacity="0.9">
            <g transform="matrix(1,0,0,1,-1.02988,-1.5)">
                <path d="M27.391,17.706L29.925,17.706L31.661,11.231L31.793,11.231L33.558,17.706L36.078,17.706L38.839,7.137L36.07,7.137L34.686,14.146L34.554,14.146L32.804,7.137L30.65,7.137L28.958,14.146L28.827,14.146L27.42,7.137L24.63,7.137L27.391,17.706ZM42.483,17.896C45.098,17.896 46.094,16.366 46.329,15.392L46.351,15.304L43.978,15.311L43.963,15.34C43.846,15.553 43.399,16.051 42.535,16.051C41.539,16.051 40.938,15.377 40.916,14.212L46.402,14.212L46.402,13.465C46.402,10.975 44.842,9.364 42.388,9.364C39.927,9.364 38.367,10.997 38.367,13.626L38.367,13.634C38.367,16.278 39.927,17.896 42.483,17.896ZM42.447,11.209C43.252,11.209 43.824,11.729 43.948,12.704L40.945,12.704C41.07,11.744 41.648,11.209 42.447,11.209ZM49.475,17.831C50.515,17.831 51.387,17.391 51.746,16.695L51.885,16.695L51.885,17.706L54.434,17.706L54.434,12.147C54.434,10.389 53.152,9.364 50.903,9.364C48.699,9.364 47.292,10.353 47.146,11.854L47.139,11.942L49.49,11.942L49.504,11.905C49.658,11.495 50.076,11.268 50.757,11.268C51.475,11.268 51.885,11.598 51.885,12.147L51.885,12.784L50.105,12.887C48.003,13.019 46.846,13.875 46.846,15.355L46.846,15.37C46.846,16.856 47.915,17.831 49.475,17.831ZM49.343,15.187L49.343,15.172C49.343,14.688 49.746,14.381 50.515,14.33L51.885,14.242L51.885,14.776C51.885,15.479 51.248,16.021 50.427,16.021C49.775,16.021 49.343,15.699 49.343,15.187ZM59.287,17.721C59.777,17.721 60.253,17.677 60.524,17.618L60.524,15.765C60.334,15.787 60.173,15.794 59.873,15.794C59.199,15.794 58.891,15.501 58.891,14.886L58.891,11.458L60.524,11.458L60.524,9.554L58.891,9.554L58.891,7.687L56.291,7.687L56.291,9.554L55.046,9.554L55.046,11.458L56.291,11.458L56.291,15.472C56.291,17.069 57.141,17.721 59.287,17.721ZM61.554,17.706L64.147,17.706L64.147,13.048C64.147,12.11 64.645,11.473 65.487,11.473C66.366,11.473 66.769,12.03 66.769,13.019L66.769,17.706L69.362,17.706L69.362,12.44C69.362,10.484 68.417,9.364 66.608,9.364C65.458,9.364 64.638,9.935 64.286,10.829L64.147,10.829L64.147,6.5L61.554,6.5L61.554,17.706ZM74.273,17.896C76.888,17.896 77.884,16.366 78.119,15.392L78.141,15.304L75.768,15.311L75.753,15.34C75.636,15.553 75.189,16.051 74.325,16.051C73.329,16.051 72.728,15.377 72.706,14.212L78.192,14.212L78.192,13.465C78.192,10.975 76.632,9.364 74.178,9.364C71.717,9.364 70.157,10.997 70.157,13.626L70.157,13.634C70.157,16.278 71.717,17.896 74.273,17.896ZM74.237,11.209C75.042,11.209 75.614,11.729 75.738,12.704L72.735,12.704C72.86,11.744 73.438,11.209 74.237,11.209ZM79.053,17.706L81.646,17.706L81.646,13.392C81.646,12.264 82.356,11.612 83.572,11.612C83.938,11.612 84.312,11.664 84.656,11.751L84.656,9.562C84.407,9.474 84.092,9.43 83.777,9.43C82.737,9.43 82.02,9.95 81.785,10.851L81.646,10.851L81.646,9.554L79.053,9.554L79.053,17.706ZM85.496,17.706L92.673,17.706L92.673,15.545L88.184,15.545L88.184,7.137L85.496,7.137L85.496,17.706ZM95.856,17.831C96.896,17.831 97.768,17.391 98.127,16.695L98.266,16.695L98.266,17.706L100.815,17.706L100.815,12.147C100.815,10.389 99.533,9.364 97.285,9.364C95.08,9.364 93.674,10.353 93.527,11.854L93.52,11.942L95.871,11.942L95.886,11.905C96.04,11.495 96.457,11.268 97.138,11.268C97.856,11.268 98.266,11.598 98.266,12.147L98.266,12.784L96.486,12.887C94.384,13.019 93.227,13.875 93.227,15.355L93.227,15.37C93.227,16.856 94.296,17.831 95.856,17.831ZM95.725,15.187L95.725,15.172C95.725,14.688 96.127,14.381 96.896,14.33L98.266,14.242L98.266,14.776C98.266,15.479 97.629,16.021 96.809,16.021C96.157,16.021 95.725,15.699 95.725,15.187ZM102.958,20.584C105.258,20.584 106.547,19.764 107.294,17.442L109.865,9.554L107.125,9.554L105.675,15.465L105.521,15.465L104.071,9.554L101.208,9.554L103.991,17.706L103.954,17.933C103.874,18.409 103.427,18.68 102.65,18.68C102.438,18.68 102.226,18.68 102.079,18.673L102.079,20.577C102.372,20.584 102.665,20.584 102.958,20.584ZM113.854,17.896C116.468,17.896 117.464,16.366 117.699,15.392L117.721,15.304L115.348,15.311L115.333,15.34C115.216,15.553 114.769,16.051 113.905,16.051C112.909,16.051 112.308,15.377 112.286,14.212L117.772,14.212L117.772,13.465C117.772,10.975 116.212,9.364 113.758,9.364C111.297,9.364 109.737,10.997 109.737,13.626L109.737,13.634C109.737,16.278 111.297,17.896 113.854,17.896ZM113.817,11.209C114.623,11.209 115.194,11.729 115.318,12.704L112.315,12.704C112.44,11.744 113.019,11.209 113.817,11.209ZM118.633,17.706L121.226,17.706L121.226,13.392C121.226,12.264 121.937,11.612 123.152,11.612C123.519,11.612 123.892,11.664 124.236,11.751L124.236,9.562C123.987,9.474 123.672,9.43 123.357,9.43C122.317,9.43 121.6,9.95 121.365,10.851L121.226,10.851L121.226,9.554L118.633,9.554L118.633,17.706ZM128.101,17.896C130.313,17.896 131.836,16.813 131.836,15.121L131.836,15.113C131.836,13.89 131.067,13.202 129.382,12.865L127.976,12.586C127.2,12.425 126.951,12.213 126.951,11.847L126.951,11.832C126.951,11.378 127.383,11.107 128.027,11.107C128.745,11.107 129.148,11.488 129.229,11.825L129.243,11.876L131.616,11.876L131.616,11.839C131.572,10.536 130.386,9.364 128.027,9.364C125.837,9.364 124.446,10.382 124.446,12.008L124.446,12.015C124.446,13.26 125.251,14.081 126.826,14.396L128.232,14.674C128.972,14.828 129.25,15.047 129.25,15.428L129.25,15.436C129.25,15.875 128.804,16.146 128.108,16.146C127.354,16.146 126.943,15.831 126.79,15.414L126.775,15.37L124.255,15.37L124.255,15.421C124.417,16.842 125.684,17.896 128.101,17.896Z" style="fill:none;fill-rule:nonzero;stroke:black;stroke-opacity:0.3;stroke-width:3px;"/>
                <path d="M27.391,17.706L29.925,17.706L31.661,11.231L31.793,11.231L33.558,17.706L36.078,17.706L38.839,7.137L36.07,7.137L34.686,14.146L34.554,14.146L32.804,7.137L30.65,7.137L28.958,14.146L28.827,14.146L27.42,7.137L24.63,7.137L27.391,17.706ZM42.483,17.896C45.098,17.896 46.094,16.366 46.329,15.392L46.351,15.304L43.978,15.311L43.963,15.34C43.846,15.553 43.399,16.051 42.535,16.051C41.539,16.051 40.938,15.377 40.916,14.212L46.402,14.212L46.402,13.465C46.402,10.975 44.842,9.364 42.388,9.364C39.927,9.364 38.367,10.997 38.367,13.626L38.367,13.634C38.367,16.278 39.927,17.896 42.483,17.896ZM42.447,11.209C43.252,11.209 43.824,11.729 43.948,12.704L40.945,12.704C41.07,11.744 41.648,11.209 42.447,11.209ZM49.475,17.831C50.515,17.831 51.387,17.391 51.746,16.695L51.885,16.695L51.885,17.706L54.434,17.706L54.434,12.147C54.434,10.389 53.152,9.364 50.903,9.364C48.699,9.364 47.292,10.353 47.146,11.854L47.139,11.942L49.49,11.942L49.504,11.905C49.658,11.495 50.076,11.268 50.757,11.268C51.475,11.268 51.885,11.598 51.885,12.147L51.885,12.784L50.105,12.887C48.003,13.019 46.846,13.875 46.846,15.355L46.846,15.37C46.846,16.856 47.915,17.831 49.475,17.831ZM49.343,15.187L49.343,15.172C49.343,14.688 49.746,14.381 50.515,14.33L51.885,14.242L51.885,14.776C51.885,15.479 51.248,16.021 50.427,16.021C49.775,16.021 49.343,15.699 49.343,15.187ZM59.287,17.721C59.777,17.721 60.253,17.677 60.524,17.618L60.524,15.765C60.334,15.787 60.173,15.794 59.873,15.794C59.199,15.794 58.891,15.501 58.891,14.886L58.891,11.458L60.524,11.458L60.524,9.554L58.891,9.554L58.891,7.687L56.291,7.687L56.291,9.554L55.046,9.554L55.046,11.458L56.291,11.458L56.291,15.472C56.291,17.069 57.141,17.721 59.287,17.721ZM61.554,17.706L64.147,17.706L64.147,13.048C64.147,12.11 64.645,11.473 65.487,11.473C66.366,11.473 66.769,12.03 66.769,13.019L66.769,17.706L69.362,17.706L69.362,12.44C69.362,10.484 68.417,9.364 66.608,9.364C65.458,9.364 64.638,9.935 64.286,10.829L64.147,10.829L64.147,6.5L61.554,6.5L61.554,17.706ZM74.273,17.896C76.888,17.896 77.884,16.366 78.119,15.392L78.141,15.304L75.768,15.311L75.753,15.34C75.636,15.553 75.189,16.051 74.325,16.051C73.329,16.051 72.728,15.377 72.706,14.212L78.192,14.212L78.192,13.465C78.192,10.975 76.632,9.364 74.178,9.364C71.717,9.364 70.157,10.997 70.157,13.626L70.157,13.634C70.157,16.278 71.717,17.896 74.273,17.896ZM74.237,11.209C75.042,11.209 75.614,11.729 75.738,12.704L72.735,12.704C72.86,11.744 73.438,11.209 74.237,11.209ZM79.053,17.706L81.646,17.706L81.646,13.392C81.646,12.264 82.356,11.612 83.572,11.612C83.938,11.612 84.312,11.664 84.656,11.751L84.656,9.562C84.407,9.474 84.092,9.43 83.777,9.43C82.737,9.43 82.02,9.95 81.785,10.851L81.646,10.851L81.646,9.554L79.053,9.554L79.053,17.706ZM85.496,17.706L92.673,17.706L92.673,15.545L88.184,15.545L88.184,7.137L85.496,7.137L85.496,17.706ZM95.856,17.831C96.896,17.831 97.768,17.391 98.127,16.695L98.266,16.695L98.266,17.706L100.815,17.706L100.815,12.147C100.815,10.389 99.533,9.364 97.285,9.364C95.08,9.364 93.674,10.353 93.527,11.854L93.52,11.942L95.871,11.942L95.886,11.905C96.04,11.495 96.457,11.268 97.138,11.268C97.856,11.268 98.266,11.598 98.266,12.147L98.266,12.784L96.486,12.887C94.384,13.019 93.227,13.875 93.227,15.355L93.227,15.37C93.227,16.856 94.296,17.831 95.856,17.831ZM95.725,15.187L95.725,15.172C95.725,14.688 96.127,14.381 96.896,14.33L98.266,14.242L98.266,14.776C98.266,15.479 97.629,16.021 96.809,16.021C96.157,16.021 95.725,15.699 95.725,15.187ZM102.958,20.584C105.258,20.584 106.547,19.764 107.294,17.442L109.865,9.554L107.125,9.554L105.675,15.465L105.521,15.465L104.071,9.554L101.208,9.554L103.991,17.706L103.954,17.933C103.874,18.409 103.427,18.68 102.65,18.68C102.438,18.68 102.226,18.68 102.079,18.673L102.079,20.577C102.372,20.584 102.665,20.584 102.958,20.584ZM113.854,17.896C116.468,17.896 117.464,16.366 117.699,15.392L117.721,15.304L115.348,15.311L115.333,15.34C115.216,15.553 114.769,16.051 113.905,16.051C112.909,16.051 112.308,15.377 112.286,14.212L117.772,14.212L117.772,13.465C117.772,10.975 116.212,9.364 113.758,9.364C111.297,9.364 109.737,10.997 109.737,13.626L109.737,13.634C109.737,16.278 111.297,17.896 113.854,17.896ZM113.817,11.209C114.623,11.209 115.194,11.729 115.318,12.704L112.315,12.704C112.44,11.744 113.019,11.209 113.817,11.209ZM118.633,17.706L121.226,17.706L121.226,13.392C121.226,12.264 121.937,11.612 123.152,11.612C123.519,11.612 123.892,11.664 124.236,11.751L124.236,9.562C123.987,9.474 123.672,9.43 123.357,9.43C122.317,9.43 121.6,9.95 121.365,10.851L121.226,10.851L121.226,9.554L118.633,9.554L118.633,17.706ZM128.101,17.896C130.313,17.896 131.836,16.813 131.836,15.121L131.836,15.113C131.836,13.89 131.067,13.202 129.382,12.865L127.976,12.586C127.2,12.425 126.951,12.213 126.951,11.847L126.951,11.832C126.951,11.378 127.383,11.107 128.027,11.107C128.745,11.107 129.148,11.488 129.229,11.825L129.243,11.876L131.616,11.876L131.616,11.839C131.572,10.536 130.386,9.364 128.027,9.364C125.837,9.364 124.446,10.382 124.446,12.008L124.446,12.015C124.446,13.26 125.251,14.081 126.826,14.396L128.232,14.674C128.972,14.828 129.25,15.047 129.25,15.428L129.25,15.436C129.25,15.875 128.804,16.146 128.108,16.146C127.354,16.146 126.943,15.831 126.79,15.414L126.775,15.37L124.255,15.37L124.255,15.421C124.417,16.842 125.684,17.896 128.101,17.896Z" style="fill:white;fill-rule:nonzero;"/>
            </g>
            <g transform="matrix(1.25,0,0,1.25,-0.6875,-2.5)">
                <path d="M6.107,9.12L3.358,10.313C3.11,10.42 2.95,10.666 2.95,10.941C2.95,11.216 3.11,11.463 3.357,11.57L6.107,12.763L3.358,13.955C3.11,14.063 2.95,14.31 2.95,14.585C2.95,14.86 3.11,15.106 3.357,15.213L9.57,17.909C9.708,17.969 9.858,18 10.009,18C10.158,18 10.307,17.97 10.447,17.909L16.659,15.214C16.907,15.106 17.067,14.86 17.067,14.585C17.067,14.31 16.907,14.063 16.66,13.956L13.91,12.763L16.659,11.57C16.907,11.463 17.068,11.216 17.068,10.941C17.068,10.666 16.907,10.419 16.66,10.313L13.91,9.119L12.766,9.616L15.82,10.942L10.084,13.43C10.034,13.452 9.981,13.452 9.933,13.43L4.197,10.941L7.251,9.616L6.107,9.12ZM15.82,14.585L10.084,17.074C10.034,17.095 9.981,17.095 9.933,17.074L4.197,14.584L7.251,13.259L9.57,14.265C9.709,14.326 9.858,14.357 10.009,14.357C10.158,14.357 10.308,14.326 10.447,14.265L12.766,13.259L15.82,14.585ZM13.531,6.619C13.52,6.659 13.492,6.685 13.448,6.698L12.241,7.076L12.241,8.282C12.241,8.324 12.223,8.359 12.187,8.385C12.146,8.411 12.106,8.416 12.067,8.401L10.86,8.03L10.116,9.008C10.089,9.042 10.053,9.059 10.009,9.059C9.965,9.059 9.929,9.042 9.901,9.008L9.157,8.03L7.95,8.401C7.912,8.416 7.872,8.411 7.83,8.385C7.794,8.359 7.777,8.324 7.777,8.282L7.777,7.076L6.569,6.698C6.525,6.685 6.498,6.659 6.487,6.619C6.473,6.574 6.479,6.536 6.503,6.505L7.247,5.527L6.503,4.55C6.479,4.516 6.473,4.478 6.487,4.436C6.498,4.396 6.525,4.37 6.569,4.357L7.777,3.979L7.777,2.773C7.777,2.731 7.794,2.696 7.83,2.67C7.872,2.644 7.912,2.638 7.95,2.654L9.157,3.025L9.901,2.047C9.926,2.016 9.962,2 10.009,2C10.056,2 10.092,2.016 10.116,2.047L10.86,3.025L12.067,2.654C12.106,2.638 12.146,2.644 12.187,2.67C12.223,2.696 12.241,2.731 12.241,2.773L12.241,3.979L13.448,4.357C13.492,4.37 13.52,4.396 13.531,4.436C13.545,4.478 13.539,4.516 13.514,4.55L12.77,5.527L13.514,6.505C13.539,6.536 13.545,6.574 13.531,6.619M12.39,5.527C12.39,5.22 12.327,4.926 12.202,4.647C12.076,4.367 11.907,4.125 11.693,3.921C11.48,3.718 11.226,3.556 10.933,3.437C10.639,3.317 10.331,3.257 10.009,3.257C9.686,3.257 9.378,3.317 9.085,3.437C8.791,3.556 8.538,3.718 8.324,3.921C8.111,4.125 7.941,4.367 7.816,4.647C7.69,4.926 7.628,5.22 7.628,5.527C7.628,5.835 7.69,6.129 7.816,6.408C7.941,6.688 8.111,6.93 8.324,7.134C8.538,7.337 8.791,7.499 9.085,7.618C9.378,7.738 9.686,7.798 10.009,7.798C10.331,7.798 10.639,7.738 10.933,7.618C11.226,7.499 11.48,7.337 11.693,7.134C11.907,6.93 12.076,6.688 12.202,6.408C12.327,6.129 12.39,5.835 12.39,5.527" style="fill:none;fill-rule:nonzero;stroke:black;stroke-opacity:0.3;stroke-width:2.4px;"/>
                <path d="M6.107,9.12L3.358,10.313C3.11,10.42 2.95,10.666 2.95,10.941C2.95,11.216 3.11,11.463 3.357,11.57L6.107,12.763L3.358,13.955C3.11,14.063 2.95,14.31 2.95,14.585C2.95,14.86 3.11,15.106 3.357,15.213L9.57,17.909C9.708,17.969 9.858,18 10.009,18C10.158,18 10.307,17.97 10.447,17.909L16.659,15.214C16.907,15.106 17.067,14.86 17.067,14.585C17.067,14.31 16.907,14.063 16.66,13.956L13.91,12.763L16.659,11.57C16.907,11.463 17.068,11.216 17.068,10.941C17.068,10.666 16.907,10.419 16.66,10.313L13.91,9.119L12.766,9.616L15.82,10.942L10.084,13.43C10.034,13.452 9.981,13.452 9.933,13.43L4.197,10.941L7.251,9.616L6.107,9.12ZM15.82,14.585L10.084,17.074C10.034,17.095 9.981,17.095 9.933,17.074L4.197,14.584L7.251,13.259L9.57,14.265C9.709,14.326 9.858,14.357 10.009,14.357C10.158,14.357 10.308,14.326 10.447,14.265L12.766,13.259L15.82,14.585ZM13.531,6.619C13.52,6.659 13.492,6.685 13.448,6.698L12.241,7.076L12.241,8.282C12.241,8.324 12.223,8.359 12.187,8.385C12.146,8.411 12.106,8.416 12.067,8.401L10.86,8.03L10.116,9.008C10.089,9.042 10.053,9.059 10.009,9.059C9.965,9.059 9.929,9.042 9.901,9.008L9.157,8.03L7.95,8.401C7.912,8.416 7.872,8.411 7.83,8.385C7.794,8.359 7.777,8.324 7.777,8.282L7.777,7.076L6.569,6.698C6.525,6.685 6.498,6.659 6.487,6.619C6.473,6.574 6.479,6.536 6.503,6.505L7.247,5.527L6.503,4.55C6.479,4.516 6.473,4.478 6.487,4.436C6.498,4.396 6.525,4.37 6.569,4.357L7.777,3.979L7.777,2.773C7.777,2.731 7.794,2.696 7.83,2.67C7.872,2.644 7.912,2.638 7.95,2.654L9.157,3.025L9.901,2.047C9.926,2.016 9.962,2 10.009,2C10.056,2 10.092,2.016 10.116,2.047L10.86,3.025L12.067,2.654C12.106,2.638 12.146,2.644 12.187,2.67C12.223,2.696 12.241,2.731 12.241,2.773L12.241,3.979L13.448,4.357C13.492,4.37 13.52,4.396 13.531,4.436C13.545,4.478 13.539,4.516 13.514,4.55L12.77,5.527L13.514,6.505C13.539,6.536 13.545,6.574 13.531,6.619M12.39,5.527C12.39,5.22 12.327,4.926 12.202,4.647C12.076,4.367 11.907,4.125 11.693,3.921C11.48,3.718 11.226,3.556 10.933,3.437C10.639,3.317 10.331,3.257 10.009,3.257C9.686,3.257 9.378,3.317 9.085,3.437C8.791,3.556 8.538,3.718 8.324,3.921C8.111,4.125 7.941,4.367 7.816,4.647C7.69,4.926 7.628,5.22 7.628,5.527C7.628,5.835 7.69,6.129 7.816,6.408C7.941,6.688 8.111,6.93 8.324,7.134C8.538,7.337 8.791,7.499 9.085,7.618C9.378,7.738 9.686,7.798 10.009,7.798C10.331,7.798 10.639,7.738 10.933,7.618C11.226,7.499 11.48,7.337 11.693,7.134C11.907,6.93 12.076,6.688 12.202,6.408C12.327,6.129 12.39,5.835 12.39,5.527" style="fill:white;fill-rule:nonzero;"/>
            </g>
        </g>
    </g>
</svg>
