<svg xmlns="http://www.w3.org/2000/svg" xml:space="preserve" style="fill-rule:evenodd;clip-rule:evenodd;stroke-linecap:round;stroke-linejoin:round;stroke-miterlimit:2" viewBox="0 0 131 23"><g opacity=".9"><path d="M27.391 17.706h2.534l1.736-6.475h.132l1.765 6.475h2.52l2.761-10.569H36.07l-1.384 7.009h-.132l-1.75-7.009H30.65l-1.692 7.009h-.131L27.42 7.137h-2.79l2.761 10.569Zm15.092.19c2.615 0 3.611-1.53 3.846-2.504l.022-.088-2.373.007-.015.029c-.117.213-.564.711-1.428.711-.996 0-1.597-.674-1.619-1.839h5.486v-.747c0-2.49-1.56-4.101-4.014-4.101-2.461 0-4.021 1.633-4.021 4.262v.008c0 2.644 1.56 4.262 4.116 4.262Zm-.036-6.687c.805 0 1.377.52 1.501 1.495h-3.003c.125-.96.703-1.495 1.502-1.495Zm7.028 6.622c1.04 0 1.912-.44 2.271-1.136h.139v1.011h2.549v-5.559c0-1.758-1.282-2.783-3.531-2.783-2.204 0-3.611.989-3.757 2.49l-.007.088h2.351l.014-.037c.154-.41.572-.637 1.253-.637.718 0 1.128.33 1.128.879v.637l-1.78.103c-2.102.132-3.259.988-3.259 2.468v.015c0 1.486 1.069 2.461 2.629 2.461Zm-.132-2.644v-.015c0-.484.403-.791 1.172-.842l1.37-.088v.534c0 .703-.637 1.245-1.458 1.245-.652 0-1.084-.322-1.084-.834Zm9.944 2.534c.49 0 .966-.044 1.237-.103v-1.853a5.19 5.19 0 0 1-.651.029c-.674 0-.982-.293-.982-.908v-3.428h1.633V9.554h-1.633V7.687h-2.6v1.867h-1.245v1.904h1.245v4.014c0 1.597.85 2.249 2.996 2.249Zm2.267-.015h2.593v-4.658c0-.938.498-1.575 1.34-1.575.879 0 1.282.557 1.282 1.546v4.687h2.593V12.44c0-1.956-.945-3.076-2.754-3.076-1.15 0-1.97.571-2.322 1.465h-.139V6.5h-2.593v11.206Zm12.719.19c2.615 0 3.611-1.53 3.846-2.504l.022-.088-2.373.007-.015.029c-.117.213-.564.711-1.428.711-.996 0-1.597-.674-1.619-1.839h5.486v-.747c0-2.49-1.56-4.101-4.014-4.101-2.461 0-4.021 1.633-4.021 4.262v.008c0 2.644 1.56 4.262 4.116 4.262Zm-.036-6.687c.805 0 1.377.52 1.501 1.495h-3.003c.125-.96.703-1.495 1.502-1.495Zm4.816 6.497h2.593v-4.314c0-1.128.71-1.78 1.926-1.78.366 0 .74.052 1.084.139V9.562a2.733 2.733 0 0 0-.879-.132c-1.04 0-1.757.52-1.992 1.421h-.139V9.554h-2.593v8.152Zm6.443 0h7.177v-2.161h-4.489V7.137h-2.688v10.569Zm10.36.125c1.04 0 1.912-.44 2.271-1.136h.139v1.011h2.549v-5.559c0-1.758-1.282-2.783-3.53-2.783-2.205 0-3.611.989-3.758 2.49l-.007.088h2.351l.015-.037c.154-.41.571-.637 1.252-.637.718 0 1.128.33 1.128.879v.637l-1.78.103c-2.102.132-3.259.988-3.259 2.468v.015c0 1.486 1.069 2.461 2.629 2.461Zm-.131-2.644v-.015c0-.484.402-.791 1.171-.842l1.37-.088v.534c0 .703-.637 1.245-1.457 1.245-.652 0-1.084-.322-1.084-.834Zm7.233 5.397c2.3 0 3.589-.82 4.336-3.142l2.571-7.888h-2.74l-1.45 5.911h-.154l-1.45-5.911h-2.863l2.783 8.152-.037.227c-.08.476-.527.747-1.304.747-.212 0-.424 0-.571-.007v1.904c.293.007.586.007.879.007Zm10.896-2.688c2.614 0 3.61-1.53 3.845-2.504l.022-.088-2.373.007-.015.029c-.117.213-.564.711-1.428.711-.996 0-1.597-.674-1.619-1.839h5.486v-.747c0-2.49-1.56-4.101-4.014-4.101-2.461 0-4.021 1.633-4.021 4.262v.008c0 2.644 1.56 4.262 4.117 4.262Zm-.037-6.687c.806 0 1.377.52 1.501 1.495h-3.003c.125-.96.704-1.495 1.502-1.495Zm4.816 6.497h2.593v-4.314c0-1.128.711-1.78 1.926-1.78.367 0 .74.052 1.084.139V9.562a2.733 2.733 0 0 0-.879-.132c-1.04 0-1.757.52-1.992 1.421h-.139V9.554h-2.593v8.152Zm9.468.19c2.212 0 3.735-1.083 3.735-2.775v-.008c0-1.223-.769-1.911-2.454-2.248l-1.406-.279c-.776-.161-1.025-.373-1.025-.739v-.015c0-.454.432-.725 1.076-.725.718 0 1.121.381 1.202.718l.014.051h2.373v-.037c-.044-1.303-1.23-2.475-3.589-2.475-2.19 0-3.581 1.018-3.581 2.644v.007c0 1.245.805 2.066 2.38 2.381l1.406.278c.74.154 1.018.373 1.018.754v.008c0 .439-.446.71-1.142.71-.754 0-1.165-.315-1.318-.732l-.015-.044h-2.52v.051c.162 1.421 1.429 2.475 3.846 2.475Z" style="fill:none;fill-rule:nonzero;stroke:#000;stroke-opacity:.3;stroke-width:3px" transform="translate(-2.33)"/><path d="M27.391 17.706h2.534l1.736-6.475h.132l1.765 6.475h2.52l2.761-10.569H36.07l-1.384 7.009h-.132l-1.75-7.009H30.65l-1.692 7.009h-.131L27.42 7.137h-2.79l2.761 10.569Zm15.092.19c2.615 0 3.611-1.53 3.846-2.504l.022-.088-2.373.007-.015.029c-.117.213-.564.711-1.428.711-.996 0-1.597-.674-1.619-1.839h5.486v-.747c0-2.49-1.56-4.101-4.014-4.101-2.461 0-4.021 1.633-4.021 4.262v.008c0 2.644 1.56 4.262 4.116 4.262Zm-.036-6.687c.805 0 1.377.52 1.501 1.495h-3.003c.125-.96.703-1.495 1.502-1.495Zm7.028 6.622c1.04 0 1.912-.44 2.271-1.136h.139v1.011h2.549v-5.559c0-1.758-1.282-2.783-3.531-2.783-2.204 0-3.611.989-3.757 2.49l-.007.088h2.351l.014-.037c.154-.41.572-.637 1.253-.637.718 0 1.128.33 1.128.879v.637l-1.78.103c-2.102.132-3.259.988-3.259 2.468v.015c0 1.486 1.069 2.461 2.629 2.461Zm-.132-2.644v-.015c0-.484.403-.791 1.172-.842l1.37-.088v.534c0 .703-.637 1.245-1.458 1.245-.652 0-1.084-.322-1.084-.834Zm9.944 2.534c.49 0 .966-.044 1.237-.103v-1.853a5.19 5.19 0 0 1-.651.029c-.674 0-.982-.293-.982-.908v-3.428h1.633V9.554h-1.633V7.687h-2.6v1.867h-1.245v1.904h1.245v4.014c0 1.597.85 2.249 2.996 2.249Zm2.267-.015h2.593v-4.658c0-.938.498-1.575 1.34-1.575.879 0 1.282.557 1.282 1.546v4.687h2.593V12.44c0-1.956-.945-3.076-2.754-3.076-1.15 0-1.97.571-2.322 1.465h-.139V6.5h-2.593v11.206Zm12.719.19c2.615 0 3.611-1.53 3.846-2.504l.022-.088-2.373.007-.015.029c-.117.213-.564.711-1.428.711-.996 0-1.597-.674-1.619-1.839h5.486v-.747c0-2.49-1.56-4.101-4.014-4.101-2.461 0-4.021 1.633-4.021 4.262v.008c0 2.644 1.56 4.262 4.116 4.262Zm-.036-6.687c.805 0 1.377.52 1.501 1.495h-3.003c.125-.96.703-1.495 1.502-1.495Zm4.816 6.497h2.593v-4.314c0-1.128.71-1.78 1.926-1.78.366 0 .74.052 1.084.139V9.562a2.733 2.733 0 0 0-.879-.132c-1.04 0-1.757.52-1.992 1.421h-.139V9.554h-2.593v8.152Zm6.443 0h7.177v-2.161h-4.489V7.137h-2.688v10.569Zm10.36.125c1.04 0 1.912-.44 2.271-1.136h.139v1.011h2.549v-5.559c0-1.758-1.282-2.783-3.53-2.783-2.205 0-3.611.989-3.758 2.49l-.007.088h2.351l.015-.037c.154-.41.571-.637 1.252-.637.718 0 1.128.33 1.128.879v.637l-1.78.103c-2.102.132-3.259.988-3.259 2.468v.015c0 1.486 1.069 2.461 2.629 2.461Zm-.131-2.644v-.015c0-.484.402-.791 1.171-.842l1.37-.088v.534c0 .703-.637 1.245-1.457 1.245-.652 0-1.084-.322-1.084-.834Zm7.233 5.397c2.3 0 3.589-.82 4.336-3.142l2.571-7.888h-2.74l-1.45 5.911h-.154l-1.45-5.911h-2.863l2.783 8.152-.037.227c-.08.476-.527.747-1.304.747-.212 0-.424 0-.571-.007v1.904c.293.007.586.007.879.007Zm10.896-2.688c2.614 0 3.61-1.53 3.845-2.504l.022-.088-2.373.007-.015.029c-.117.213-.564.711-1.428.711-.996 0-1.597-.674-1.619-1.839h5.486v-.747c0-2.49-1.56-4.101-4.014-4.101-2.461 0-4.021 1.633-4.021 4.262v.008c0 2.644 1.56 4.262 4.117 4.262Zm-.037-6.687c.806 0 1.377.52 1.501 1.495h-3.003c.125-.96.704-1.495 1.502-1.495Zm4.816 6.497h2.593v-4.314c0-1.128.711-1.78 1.926-1.78.367 0 .74.052 1.084.139V9.562a2.733 2.733 0 0 0-.879-.132c-1.04 0-1.757.52-1.992 1.421h-.139V9.554h-2.593v8.152Zm9.468.19c2.212 0 3.735-1.083 3.735-2.775v-.008c0-1.223-.769-1.911-2.454-2.248l-1.406-.279c-.776-.161-1.025-.373-1.025-.739v-.015c0-.454.432-.725 1.076-.725.718 0 1.121.381 1.202.718l.014.051h2.373v-.037c-.044-1.303-1.23-2.475-3.589-2.475-2.19 0-3.581 1.018-3.581 2.644v.007c0 1.245.805 2.066 2.38 2.381l1.406.278c.74.154 1.018.373 1.018.754v.008c0 .439-.446.71-1.142.71-.754 0-1.165-.315-1.318-.732l-.015-.044h-2.52v.051c.162 1.421 1.429 2.475 3.846 2.475Z" style="fill:#fff;fill-rule:nonzero" transform="translate(-2.33)"/><path d="m6.107 9.12-2.749 1.193a.68.68 0 0 0-.408.628c0 .275.16.522.407.629l2.75 1.193-2.749 1.192a.684.684 0 0 0-.408.63c0 .275.16.521.407.628l6.213 2.696a1.103 1.103 0 0 0 .877 0l6.212-2.695a.683.683 0 0 0 .408-.629.682.682 0 0 0-.407-.629l-2.75-1.193 2.749-1.193a.683.683 0 0 0 .409-.629.68.68 0 0 0-.408-.628l-2.75-1.194-1.144.497 3.054 1.326-5.736 2.488a.181.181 0 0 1-.151 0l-5.736-2.489 3.054-1.325-1.144-.496Zm9.713 5.465-5.736 2.489a.189.189 0 0 1-.151 0l-5.736-2.49 3.054-1.325 2.319 1.006a1.09 1.09 0 0 0 .877 0l2.319-1.006 3.054 1.326Zm-2.289-7.966c-.011.04-.039.066-.083.079l-1.207.378v1.206a.122.122 0 0 1-.054.103.128.128 0 0 1-.12.016L10.86 8.03l-.744.978a.13.13 0 0 1-.107.051.134.134 0 0 1-.108-.051l-.744-.978-1.207.371c-.038.015-.078.01-.12-.016a.121.121 0 0 1-.053-.103V7.076l-1.208-.378c-.044-.013-.071-.039-.082-.079-.014-.045-.008-.083.016-.114l.744-.978-.744-.977a.121.121 0 0 1-.016-.114c.011-.04.038-.066.082-.079l1.208-.378V2.773c0-.042.017-.077.053-.103.042-.026.082-.032.12-.016l1.207.371.744-.978A.131.131 0 0 1 10.009 2c.047 0 .083.016.107.047l.744.978 1.207-.371c.039-.016.079-.01.12.016a.122.122 0 0 1 .054.103v1.206l1.207.378c.044.013.072.039.083.079a.119.119 0 0 1-.017.114l-.744.977.744.978c.025.031.031.069.017.114M12.39 5.527c0-.307-.063-.601-.188-.88a2.287 2.287 0 0 0-1.269-1.21 2.422 2.422 0 0 0-.924-.18c-.323 0-.631.06-.924.18a2.284 2.284 0 0 0-1.269 1.21 2.115 2.115 0 0 0-.188.88c0 .308.062.602.188.881a2.284 2.284 0 0 0 1.269 1.21c.293.12.601.18.924.18.322 0 .63-.06.924-.18a2.287 2.287 0 0 0 1.269-1.21c.125-.279.188-.573.188-.881" style="fill:none;fill-rule:nonzero;stroke:#000;stroke-opacity:.3;stroke-width:2.4px" transform="matrix(1.25 0 0 1.25 -2.188 -1)"/><path d="m6.107 9.12-2.749 1.193a.68.68 0 0 0-.408.628c0 .275.16.522.407.629l2.75 1.193-2.749 1.192a.684.684 0 0 0-.408.63c0 .275.16.521.407.628l6.213 2.696a1.103 1.103 0 0 0 .877 0l6.212-2.695a.683.683 0 0 0 .408-.629.682.682 0 0 0-.407-.629l-2.75-1.193 2.749-1.193a.683.683 0 0 0 .409-.629.68.68 0 0 0-.408-.628l-2.75-1.194-1.144.497 3.054 1.326-5.736 2.488a.181.181 0 0 1-.151 0l-5.736-2.489 3.054-1.325-1.144-.496Zm9.713 5.465-5.736 2.489a.189.189 0 0 1-.151 0l-5.736-2.49 3.054-1.325 2.319 1.006a1.09 1.09 0 0 0 .877 0l2.319-1.006 3.054 1.326Zm-2.289-7.966c-.011.04-.039.066-.083.079l-1.207.378v1.206a.122.122 0 0 1-.054.103.128.128 0 0 1-.12.016L10.86 8.03l-.744.978a.13.13 0 0 1-.107.051.134.134 0 0 1-.108-.051l-.744-.978-1.207.371c-.038.015-.078.01-.12-.016a.121.121 0 0 1-.053-.103V7.076l-1.208-.378c-.044-.013-.071-.039-.082-.079-.014-.045-.008-.083.016-.114l.744-.978-.744-.977a.121.121 0 0 1-.016-.114c.011-.04.038-.066.082-.079l1.208-.378V2.773c0-.042.017-.077.053-.103.042-.026.082-.032.12-.016l1.207.371.744-.978A.131.131 0 0 1 10.009 2c.047 0 .083.016.107.047l.744.978 1.207-.371c.039-.016.079-.01.12.016a.122.122 0 0 1 .054.103v1.206l1.207.378c.044.013.072.039.083.079a.119.119 0 0 1-.017.114l-.744.977.744.978c.025.031.031.069.017.114M12.39 5.527c0-.307-.063-.601-.188-.88a2.287 2.287 0 0 0-1.269-1.21 2.422 2.422 0 0 0-.924-.18c-.323 0-.631.06-.924.18a2.284 2.284 0 0 0-1.269 1.21 2.115 2.115 0 0 0-.188.88c0 .308.062.602.188.881a2.284 2.284 0 0 0 1.269 1.21c.293.12.601.18.924.18.322 0 .63-.06.924-.18a2.287 2.287 0 0 0 1.269-1.21c.125-.279.188-.573.188-.881" style="fill:#fff;fill-rule:nonzero" transform="matrix(1.25 0 0 1.25 -2.188 -1)"/></g></svg>